<svg width="19" height="17" viewBox="0 0 19 17" fill="none" xmlns="http://www.w3.org/2000/svg">
<path d="M15.5 3H13.5L12.842 1.02588C12.638 0.412879 12.0649 0 11.4189 0H7.58105C6.93505 0 6.36196 0.412879 6.15796 1.02588L5.5 3H3.5C1.5 3 0.5 4 0.5 6V14C0.5 16 1.5 17 3.5 17H15.5C17.5 17 18.5 16 18.5 14V6C18.5 4 17.5 3 15.5 3ZM9.5 13C7.843 13 6.5 11.657 6.5 10C6.5 8.343 7.843 7 9.5 7C11.157 7 12.5 8.343 12.5 10C12.5 11.657 11.157 13 9.5 13ZM15 7.5C14.448 7.5 14 7.052 14 6.5C14 5.948 14.448 5.5 15 5.5C15.552 5.5 16 5.948 16 6.5C16 7.052 15.552 7.5 15 7.5Z" fill="#3C3C43" fill-opacity="0.6"/>
</svg>
